<?xml version="1.0" encoding="iso-8859-1"?>
<!-- Uploaded to: SVG Repo, www.svgrepo.com, Generator: SVG Repo Mixer Tools -->
<!DOCTYPE svg PUBLIC "-//W3C//DTD SVG 1.1//EN" "http://www.w3.org/Graphics/SVG/1.1/DTD/svg11.dtd">
<svg fill="#000000" version="1.1" id="Capa_1" xmlns="http://www.w3.org/2000/svg" xmlns:xlink="http://www.w3.org/1999/xlink" 
	 width="800px" height="800px" viewBox="0 0 475.888 475.888"
	 xml:space="preserve">
<g>
	<path d="M425.521,33.894c0-9.094-7.369-16.462-16.465-16.462h-98.78c-1.708,0-3.348,0.257-4.893,0.733v-0.733h-5.744
		C296.357,7.464,283.43,0,267.999,0c-17.894,0-32.453,10.036-32.453,22.372c0,8.12,6.332,15.226,15.741,19.141v7.116
		c-24.73-3.412-50.791-1.494-73.135,10.132c-12.512,6.517-23.483,17.511-29.166,30.471c-6.046,13.806-5.866,28.594-3.817,43.245
		c2.012,14.353,6.796,28.074,9.796,42.2c3.395,15.98,5.918,32.153,7.62,48.402c3.126,29.727,4.68,61.42-4.135,90.331
		c-3.346,10.964-7.839,21.623-13.228,31.807l-16.05-10.726l-78.805,99.153l63.183,42.243l61.941-110.43l-16.099-10.764
		c7.879-14.622,13.959-30.343,17.869-46.173c7.576-30.681,4.791-64.635,0.988-95.647c-1.961-15.965-4.275-32.173-8.216-47.784
		c-3.485-13.801-7.823-27.519-9.149-41.751c-1.037-11.037,0.117-21.992,5.715-31.721c5.417-9.428,14.759-15.978,24.413-20.474
		c18.144-8.433,40.53-8.758,60.267-5.587v9.617c-29.614,12.126-50.492,41.212-50.492,75.196v70.16v175.407v61.489
		c0,10.193,8.27,18.462,18.462,18.462h125.554c10.197,0,18.466-8.269,18.466-18.462V395.92V220.525V150.36
		c0-36.748-24.405-67.779-57.894-77.815V53.249l84.199,46.512c7.956,4.399,17.976,1.518,22.362-6.449
		c4.401-7.957,1.516-17.975-6.44-22.369l-37.246-20.581h40.809C418.152,50.356,425.521,42.988,425.521,33.894z M240.352,22.372
		c0-9.688,12.402-17.565,27.647-17.565c12.548,0,23.147,5.332,26.52,12.624h-43.241v18.9
		C244.65,33.12,240.352,28.066,240.352,22.372z M321.176,325.178h-28.071c0.542-1.783,1.105-3.556,1.67-5.248
		c3.671-11.039,6.855-20.573-6.042-29.586l-0.421,0.421c7.705,10.852,2.074,22.463-5.215,34.413H265.22
		c-0.491-5.176-2.091-9.849-3.502-12.705c-4.399-7.146-7.957-14.091-3.358-20.559l-0.242-0.239
		c-7.508,5.246-5.658,10.795-3.52,17.22c0.4,1.197,0.816,2.439,1.177,3.709c0.531,4.597-0.785,7.171-1.98,8.515
		c-1.209,1.352-2.922,2.135-4.706,2.135c-1.265,0-2.451-0.384-3.354-1.084c-4.557-3.754-6.792-7.886-6.646-12.274
		c0.285-8.563,9.617-15.36,9.71-15.426c11.426-7.294,17.286-18.872,13.928-27.534c-0.448-1.449-1.194-2.682-1.971-3.961
		c-1.979-3.282-4.22-6.999-2.516-16.192l-0.323-0.115c-2.837,5.019-2.185,10.571-1.55,15.935c0.976,8.246,1.882,16.021-9.851,21.012
		c-0.3,0.144-0.728,0.323-1.258,0.542c-4.235,1.759-15.493,6.396-16.821,20.815c-1.004,8.815,0.018,15.524,1.388,20.22h-13.426
		V214.584h72.296c2.452,14.785-1.246,20.99-4.551,26.459c-1.335,2.22-2.602,4.315-3.384,6.805
		c-5.763,14.879,4.312,34.78,23.937,47.301c0.151,0.108,16.185,11.775,16.679,26.495
		C321.44,322.837,321.342,324.009,321.176,325.178z M348.656,214.584v110.594h-8.296c0-3.714-0.186-7.704-0.678-12
		c-2.288-24.766-21.613-32.744-28.893-35.748c-0.906-0.383-1.64-0.678-2.156-0.935c-20.158-8.565-18.583-21.934-16.917-36.088
		c1.018-8.666,2.068-17.615-1.862-25.823H348.656z"/>
</g>
</svg>