<?xml version="1.0" encoding="iso-8859-1"?>
<!-- Uploaded to: SVG Repo, www.svgrepo.com, Generator: SVG Repo Mixer Tools -->
<svg fill="#000000" height="800px" width="800px" version="1.1" id="Layer_1" xmlns="http://www.w3.org/2000/svg" xmlns:xlink="http://www.w3.org/1999/xlink" 
	 viewBox="0 0 512 512" xml:space="preserve">
<g>
	<g>
		<path d="M496.655,38.869H15.345C6.87,38.869,0,45.739,0,54.214v128.898c0,8.475,6.87,15.345,15.345,15.345h12.614v44.5
			c0,126.918,103.256,230.174,230.174,230.174s230.174-103.256,230.174-230.174v-44.5h8.348c8.475,0,15.345-6.87,15.345-15.345
			V54.214C512,45.739,505.13,38.869,496.655,38.869z M258.133,437.147c-52.079,0-94.448-42.369-94.448-94.448
			s42.369-94.448,94.448-94.448c51.617,0,93.079,40.373,94.421,91.929c0.014,0.844,0.028,1.674,0.028,2.52
			C352.581,394.778,310.212,437.147,258.133,437.147z M457.617,242.957c0,72.378-38.748,135.869-96.586,170.837
			c14.005-20.206,22.239-44.701,22.239-71.095c0-1.037-0.015-2.056-0.032-3.094c0-0.045-0.002-0.091-0.003-0.135
			c-0.83-32.746-14.213-63.399-37.681-86.314c-23.51-22.955-54.557-35.596-87.422-35.596c-69.002,0-125.138,56.136-125.138,125.138
			c0,26.393,8.234,50.887,22.238,71.095c-57.837-34.968-96.584-98.461-96.584-170.837v-44.5h398.969V242.957z M481.31,167.766
			h-8.348H43.303H30.69V69.559h450.62V167.766z"/>
	</g>
</g>
<g>
	<g>
		<path d="M258.133,279.785c-34.69,0-62.914,28.224-62.914,62.914s28.224,62.914,62.914,62.914c34.69,0,62.914-28.224,62.914-62.914
			C321.047,308.009,292.825,279.785,258.133,279.785z M258.133,374.923c-17.769,0-32.224-14.455-32.224-32.224
			s14.455-32.224,32.224-32.224s32.224,14.455,32.224,32.224S275.902,374.923,258.133,374.923z"/>
	</g>
</g>
<g>
	<g>
		<path d="M421.634,103.318H149.874c-8.475,0-15.345,6.87-15.345,15.345s6.87,15.345,15.345,15.345h271.759
			c8.475,0,15.345-6.87,15.345-15.345S430.109,103.318,421.634,103.318z"/>
	</g>
</g>
<g>
	<g>
		<path d="M100.586,103.318h-10.22c-8.475,0-15.345,6.87-15.345,15.345s6.87,15.345,15.345,15.345h10.22
			c8.475,0,15.345-6.87,15.345-15.345S109.061,103.318,100.586,103.318z"/>
	</g>
</g>
</svg>