<?xml version="1.0" encoding="iso-8859-1"?>
<!-- Uploaded to: SVG Repo, www.svgrepo.com, Generator: SVG Repo Mixer Tools -->
<svg fill="#000000" height="800px" width="800px" version="1.1" id="Layer_1" xmlns="http://www.w3.org/2000/svg" xmlns:xlink="http://www.w3.org/1999/xlink" 
	 viewBox="0 0 511.999 511.999" xml:space="preserve">
<g>
	<g>
		<path d="M406.186,110.462c-7.733-15.061-20.93-23.31-38.149-23.31l-46.579-46.579h-65.458h-65.458l-46.579,46.579
			c-17.219,0-30.416,8.248-38.149,23.31L0,333.844l100.785,50.392l9.656-19.312v106.501h291.118V364.925l9.656,19.312
			l100.785-50.392L406.186,110.462z M314.223,82.741l21.877,21.877l-33.522,33.522l-21.877-21.877L314.223,82.741z M197.777,82.741
			l33.522,33.522l-21.877,21.877L175.9,104.618L197.777,82.741z M238.532,436.492h-93.158V331.69h93.158V436.492z M238.532,296.756
			h-93.158v-79.814L85.162,337.367l-38.952-19.476l91.173-192.476c1.44-2.42,2.787-3.329,6.578-3.329l65.458,65.458l29.112-29.112
			V296.756z M255.999,91.561l-16.055-16.055h16.055h16.055L255.999,91.561z M366.624,436.492h-93.158V331.69h93.158V436.492z
			 M366.624,216.942v79.814h-93.158V158.432l29.112,29.112l65.458-65.458c3.79,0,5.138,0.909,6.578,3.329l91.173,192.478
			l-38.952,19.476L366.624,216.942z"/>
	</g>
</g>
<g>
	<g>
		<path d="M320.045,221.065c-12.842,0-23.289,10.448-23.289,23.289c0,12.842,10.448,23.289,23.289,23.289
			c12.842,0,23.289-10.448,23.289-23.289C343.335,231.513,332.887,221.065,320.045,221.065z"/>
	</g>
</g>
</svg>